<svg width="3131" height="1073" viewBox="0 0 3131 1073" fill="none" xmlns="http://www.w3.org/2000/svg">
<path d="M429.494 411.362C458.478 397.123 489.176 384.284 521.593 372.857C567.853 356.56 605.754 340.263 656.15 344.654C713.134 349.638 694.9 402.243 665.015 424.623C606.431 468.529 538.056 502.727 484.03 541.909C457.015 561.498 435.488 588.857 456.765 623.904C470.046 645.685 483.858 664.013 498.212 678.873C574.239 757.461 647.035 834.664 716.593 910.493C753.145 950.269 821.52 1037.24 730.608 1066.37C712.291 1072.28 691.692 1074.48 672.864 1068.48C634.936 1056.49 602.265 1037.49 574.858 1011.49C528.431 967.467 489.317 927.102 457.52 890.399C409.067 834.414 360.78 768.717 297.978 730.211C274.228 715.633 254.671 719.065 239.306 740.513C223.775 762.3 211.395 784.566 202.166 807.305C183.369 853.581 163.025 901.29 141.134 950.435C128.046 979.821 90.0614 1047.21 51.6499 1021.28C26.4937 1004.31 14.5926 949.758 11.3843 922.06C-7.1834 762.3 -0.600065 593.081 13.7489 427.998C20.8426 346.539 33.926 265.477 53.0041 184.81C67.0978 124.94 95.0406 34.081 151.265 4.95083C171.52 -5.52312 198.28 0.305 203.853 25.4665C213.728 70.4769 206.301 118.774 198.535 163.784C191.78 202.909 188.379 245.409 188.322 291.289C188.238 336.378 188.572 375.732 221.666 410.435C248.061 438.019 278.39 450.039 312.666 446.493C351.16 442.493 390.103 430.784 429.494 411.362Z" fill="#F98900"/>
<path d="M411.093 239.274C412.077 240.571 413.03 241.893 413.947 243.242C414.869 244.586 415.749 245.956 416.603 247.347C417.452 248.737 418.265 250.149 419.046 251.581C419.822 253.008 420.567 254.461 421.27 255.93C421.978 257.404 422.645 258.888 423.28 260.393C423.91 261.899 424.504 263.42 425.061 264.951C425.619 266.487 426.134 268.034 426.613 269.597C427.093 271.159 427.535 272.732 427.931 274.321C428.332 275.904 428.697 277.503 429.015 279.107C429.337 280.711 429.619 282.326 429.863 283.946C430.103 285.565 430.301 287.19 430.462 288.826C430.624 290.456 430.744 292.091 430.827 293.732C430.905 295.373 430.942 297.018 430.942 298.659C430.942 300.305 430.9 301.951 430.817 303.591C430.733 305.237 430.608 306.878 430.447 308.518C430.28 310.159 430.077 311.794 429.832 313.425C429.587 315.06 429.306 316.685 428.978 318.305C428.655 319.925 428.291 321.534 427.89 323.138C427.483 324.742 427.041 326.341 426.561 327.925C426.077 329.508 425.556 331.081 424.999 332.643C424.436 334.201 423.843 335.748 423.207 337.284C422.572 338.815 421.9 340.336 421.192 341.836C420.483 343.341 419.738 344.826 418.957 346.295C418.171 347.763 417.358 349.211 416.504 350.638C415.65 352.071 414.764 353.482 413.843 354.867C412.926 356.258 411.968 357.623 410.983 358.966C409.994 360.31 408.978 361.628 407.926 362.925C406.874 364.216 405.791 365.487 404.676 366.732C403.567 367.977 402.426 369.19 401.254 370.383C400.082 371.571 398.879 372.732 397.655 373.867C396.426 374.998 395.171 376.102 393.889 377.175C392.613 378.248 391.306 379.289 389.973 380.3C388.645 381.305 387.291 382.284 385.916 383.232C384.535 384.175 383.139 385.086 381.718 385.966C380.296 386.841 378.858 387.685 377.395 388.498C375.936 389.305 374.457 390.076 372.957 390.815C371.462 391.555 369.947 392.253 368.421 392.92C366.889 393.581 365.343 394.211 363.785 394.8C362.228 395.388 360.655 395.94 359.072 396.456C357.488 396.972 355.889 397.446 354.285 397.883C352.681 398.315 351.067 398.716 349.442 399.076C347.817 399.43 346.186 399.753 344.551 400.029C342.91 400.31 341.27 400.55 339.624 400.748C337.973 400.946 336.322 401.107 334.671 401.227C333.014 401.341 331.363 401.42 329.707 401.461C328.051 401.498 326.4 401.498 324.744 401.456C323.093 401.409 321.442 401.331 319.796 401.206C318.15 401.081 316.504 400.92 314.869 400.716C313.233 400.513 311.603 400.268 309.978 399.987C308.353 399.701 306.738 399.378 305.134 399.018C303.53 398.654 301.936 398.253 300.353 397.815C298.77 397.373 297.197 396.893 295.639 396.373C294.082 395.857 292.541 395.3 291.009 394.706C289.483 394.112 287.968 393.482 286.473 392.815C284.978 392.143 283.499 391.44 282.041 390.701C280.582 389.956 279.145 389.18 277.723 388.367C276.306 387.555 274.91 386.711 273.535 385.826C272.155 384.946 270.806 384.029 269.478 383.081C268.15 382.133 266.843 381.154 265.567 380.138C264.285 379.128 263.035 378.081 261.811 377.008C260.587 375.93 259.389 374.826 258.218 373.69C257.051 372.555 255.91 371.388 254.801 370.196C253.686 369.003 252.608 367.784 251.561 366.539C250.509 365.289 249.494 364.018 248.509 362.722C247.525 361.425 246.572 360.102 245.655 358.758C244.738 357.409 243.853 356.039 243.004 354.649C242.155 353.258 241.337 351.852 240.561 350.42C239.78 348.987 239.041 347.534 238.332 346.065C237.624 344.597 236.957 343.107 236.327 341.602C235.692 340.097 235.098 338.581 234.541 337.045C233.988 335.508 233.468 333.961 232.988 332.399C232.509 330.836 232.072 329.263 231.671 327.675C231.27 326.091 230.91 324.498 230.587 322.888C230.264 321.284 229.983 319.669 229.744 318.05C229.499 316.43 229.301 314.805 229.14 313.17C228.978 311.539 228.858 309.904 228.78 308.263C228.702 306.623 228.66 304.982 228.66 303.336C228.666 301.69 228.707 300.05 228.791 298.404C228.869 296.758 228.994 295.117 229.16 293.477C229.322 291.836 229.525 290.201 229.77 288.571C230.015 286.935 230.301 285.31 230.624 283.69C230.947 282.071 231.311 280.461 231.718 278.857C232.119 277.253 232.561 275.659 233.046 274.071C233.525 272.487 234.046 270.914 234.608 269.357C235.166 267.795 235.765 266.248 236.395 264.711C237.03 263.18 237.702 261.659 238.41 260.159C239.124 258.654 239.869 257.17 240.65 255.701C241.431 254.232 242.249 252.784 243.098 251.357C243.952 249.925 244.837 248.518 245.759 247.128C246.681 245.737 247.634 244.373 248.624 243.029C249.608 241.685 250.629 240.367 251.681 239.071C252.733 237.779 253.811 236.508 254.926 235.263C256.041 234.018 257.181 232.805 258.353 231.612C259.525 230.425 260.723 229.263 261.952 228.133C263.176 226.998 264.431 225.893 265.712 224.821C266.994 223.748 268.296 222.711 269.629 221.701C270.957 220.69 272.311 219.711 273.692 218.763C275.067 217.821 276.468 216.909 277.884 216.029C279.306 215.154 280.749 214.31 282.207 213.503C283.671 212.69 285.145 211.92 286.645 211.18C288.139 210.446 289.655 209.742 291.186 209.076C292.712 208.414 294.259 207.784 295.817 207.196C297.379 206.607 298.947 206.055 300.53 205.539C302.119 205.029 303.712 204.55 305.317 204.112C306.926 203.68 308.541 203.279 310.16 202.925C311.785 202.565 313.416 202.248 315.056 201.966C316.692 201.685 318.332 201.446 319.983 201.248C321.629 201.05 323.28 200.888 324.931 200.774C326.587 200.654 328.238 200.576 329.895 200.534C331.551 200.498 333.207 200.498 334.858 200.545C336.509 200.586 338.16 200.67 339.811 200.789C341.457 200.914 343.098 201.076 344.733 201.279C346.374 201.482 348.004 201.727 349.624 202.008C351.249 202.295 352.863 202.617 354.468 202.977C356.072 203.341 357.666 203.742 359.249 204.185C360.837 204.623 362.405 205.102 363.962 205.623C365.52 206.138 367.067 206.696 368.593 207.289C370.124 207.883 371.634 208.513 373.129 209.18C374.624 209.852 376.103 210.555 377.561 211.295C379.02 212.039 380.462 212.815 381.879 213.628C383.296 214.44 384.697 215.284 386.072 216.17C387.447 217.05 388.796 217.966 390.129 218.914C391.457 219.862 392.759 220.841 394.035 221.857C395.317 222.873 396.567 223.914 397.791 224.992C399.02 226.065 400.218 227.17 401.384 228.305C402.556 229.44 403.697 230.607 404.806 231.8C405.916 232.992 406.994 234.211 408.046 235.456C409.093 236.706 410.108 237.977 411.093 239.274Z" fill="#FC9F26"/>
<path d="M1285.16 844.035H1153.13V790.129C1137.51 811.483 1118.63 827.368 1096.49 837.785C1074.61 847.941 1050.53 853.02 1024.22 853.02C989.849 853.02 959.12 846.9 932.037 834.66C904.953 822.421 882.037 805.754 863.287 784.66C844.537 763.306 830.214 738.306 820.318 709.66C810.422 681.014 805.474 650.285 805.474 617.473C805.474 584.66 810.422 553.931 820.318 525.285C830.214 496.639 844.537 471.77 863.287 450.676C882.037 429.322 904.953 412.525 932.037 400.285C959.12 388.046 989.849 381.926 1024.22 381.926C1041.67 381.926 1058.21 384.53 1073.83 389.738C1089.72 394.947 1104.17 402.368 1117.19 412.004C1130.47 421.379 1142.06 432.837 1151.96 446.379C1162.11 459.66 1170.06 474.504 1175.79 490.91L1234.38 392.863H1285.16V844.035ZM1152.35 617.473C1152.35 605.754 1151.7 593.384 1150.4 580.363C1149.35 567.342 1147.4 554.452 1144.54 541.691C1141.67 528.931 1137.64 516.822 1132.43 505.363C1127.48 493.645 1120.97 483.358 1112.9 474.504C1105.08 465.389 1095.58 458.228 1084.38 453.02C1073.18 447.811 1060.16 445.207 1045.32 445.207C1030.47 445.207 1017.58 447.941 1006.65 453.41C995.708 458.618 986.333 465.78 978.521 474.895C970.708 483.749 964.198 494.035 958.99 505.754C954.042 517.473 950.136 529.712 947.271 542.473C944.406 555.233 942.323 568.124 941.021 581.145C939.979 593.905 939.458 606.014 939.458 617.473C939.458 628.931 939.979 641.171 941.021 654.191C942.323 667.212 944.406 680.103 947.271 692.863C950.136 705.624 954.042 717.863 958.99 729.582C964.198 741.301 970.708 751.717 978.521 760.832C986.333 769.686 995.708 776.848 1006.65 782.316C1017.58 787.525 1030.47 790.129 1045.32 790.129C1058.86 790.129 1070.84 787.395 1081.26 781.926C1091.93 776.197 1101.18 768.645 1108.99 759.27C1117.06 749.895 1123.83 739.217 1129.3 727.238C1134.77 715.259 1139.2 702.889 1142.58 690.129C1145.97 677.368 1148.44 664.738 1150.01 652.238C1151.57 639.478 1152.35 627.889 1152.35 617.473ZM1779.3 432.707L1705.08 555.754C1701.96 545.337 1697.92 533.618 1692.97 520.598C1688.03 507.577 1681.91 495.467 1674.61 484.27C1667.32 472.811 1658.6 463.306 1648.44 455.754C1638.29 447.941 1626.57 444.035 1613.29 444.035C1601.05 444.035 1590.37 447.16 1581.26 453.41C1572.4 459.66 1564.85 467.863 1558.6 478.02C1552.35 487.915 1547.14 499.243 1542.97 512.004C1539.07 524.504 1535.94 537.264 1533.6 550.285C1531.52 563.046 1530.08 575.415 1529.3 587.395C1528.52 599.113 1528.13 609.27 1528.13 617.863V844.035H1395.71V392.863H1446.49L1500.01 497.941C1507.3 481.014 1515.63 465.52 1525.01 451.457C1534.38 437.134 1545.19 424.895 1557.43 414.738C1569.67 404.322 1583.47 396.249 1598.83 390.52C1614.46 384.79 1632.04 381.926 1651.57 381.926C1661.72 381.926 1673.05 382.837 1685.55 384.66C1698.05 386.223 1710.29 389.087 1722.27 393.254C1734.25 397.16 1745.32 402.368 1755.47 408.879C1765.63 415.389 1773.57 423.332 1779.3 432.707ZM2532.82 580.754C2532.82 611.743 2529.17 644.035 2521.88 677.629C2514.59 711.223 2504.3 744.035 2491.02 776.066C2478 807.837 2462.24 837.915 2443.76 866.301C2425.27 894.686 2404.69 919.296 2382.04 940.129L2332.43 913.176C2339.98 899.634 2346.88 884.4 2353.13 867.473C2359.38 850.546 2365.11 832.707 2370.32 813.957C2375.53 795.207 2380.08 775.936 2383.99 756.145C2387.9 736.353 2391.15 716.691 2393.76 697.16C2396.62 677.368 2398.7 658.228 2400.01 639.738C2401.31 621.249 2401.96 603.931 2401.96 587.785C2401.96 578.671 2401.7 568.775 2401.18 558.098C2400.66 547.421 2399.48 536.743 2397.66 526.066C2396.1 515.389 2393.63 505.233 2390.24 495.598C2386.85 485.702 2382.17 476.978 2376.18 469.426C2370.45 461.613 2363.16 455.493 2354.3 451.066C2345.71 446.379 2335.29 444.035 2323.05 444.035C2311.07 444.035 2300.79 447.29 2292.19 453.801C2283.86 460.051 2276.7 468.254 2270.71 478.41C2264.72 488.566 2259.9 500.025 2256.26 512.785C2252.87 525.546 2250.27 538.436 2248.44 551.457C2246.62 564.217 2245.32 576.457 2244.54 588.176C2244.02 599.895 2243.76 609.79 2243.76 617.863V844.035H2112.11V633.879C2112.11 624.764 2112.24 613.827 2112.51 601.066C2112.77 588.046 2112.38 574.504 2111.33 560.441C2110.55 546.379 2108.86 532.447 2106.26 518.645C2103.91 504.582 2100.01 492.082 2094.54 481.145C2089.33 470.207 2082.17 461.353 2073.05 454.582C2063.94 447.551 2052.48 444.035 2038.68 444.035C2026.96 444.035 2017.06 447.29 2008.99 453.801C2001.18 460.311 1994.54 468.775 1989.07 479.191C1983.86 489.348 1979.69 500.936 1976.57 513.957C1973.7 526.717 1971.49 539.608 1969.93 552.629C1968.63 565.389 1967.84 577.629 1967.58 589.348C1967.32 600.806 1967.19 610.311 1967.19 617.863V844.035H1834.77V392.863H1885.55L1933.99 497.941C1944.93 461.483 1962.11 433.098 1985.55 412.785C2009.25 392.212 2040.63 381.926 2079.69 381.926C2114.85 381.926 2144.02 389.217 2167.19 403.801C2190.37 418.384 2208.6 442.082 2221.88 474.895C2229.43 460.572 2237.77 447.681 2246.88 436.223C2256.26 424.764 2266.54 414.999 2277.74 406.926C2289.2 398.853 2301.83 392.733 2315.63 388.566C2329.43 384.139 2344.67 381.926 2361.33 381.926C2392.06 381.926 2418.23 387.004 2439.85 397.16C2461.72 407.056 2479.56 420.858 2493.36 438.566C2507.17 456.275 2517.19 477.368 2523.44 501.848C2529.69 526.066 2532.82 552.368 2532.82 580.754ZM3075.01 844.035H2942.97V790.129C2927.35 811.483 2908.47 827.368 2886.33 837.785C2864.46 847.941 2840.37 853.02 2814.07 853.02C2779.69 853.02 2748.96 846.9 2721.88 834.66C2694.8 822.421 2671.88 805.754 2653.13 784.66C2634.38 763.306 2620.06 738.306 2610.16 709.66C2600.27 681.014 2595.32 650.285 2595.32 617.473C2595.32 584.66 2600.27 553.931 2610.16 525.285C2620.06 496.639 2634.38 471.77 2653.13 450.676C2671.88 429.322 2694.8 412.525 2721.88 400.285C2748.96 388.046 2779.69 381.926 2814.07 381.926C2831.52 381.926 2848.05 384.53 2863.68 389.738C2879.56 394.947 2894.02 402.368 2907.04 412.004C2920.32 421.379 2931.91 432.837 2941.8 446.379C2951.96 459.66 2959.9 474.504 2965.63 490.91L3024.22 392.863H3075.01V844.035ZM2942.19 617.473C2942.19 605.754 2941.54 593.384 2940.24 580.363C2939.2 567.342 2937.24 554.452 2934.38 541.691C2931.52 528.931 2927.48 516.822 2922.27 505.363C2917.32 493.645 2910.81 483.358 2902.74 474.504C2894.93 465.389 2885.42 458.228 2874.22 453.02C2863.03 447.811 2850.01 445.207 2835.16 445.207C2820.32 445.207 2807.43 447.941 2796.49 453.41C2785.55 458.618 2776.18 465.78 2768.36 474.895C2760.55 483.749 2754.04 494.035 2748.83 505.754C2743.89 517.473 2739.98 529.712 2737.11 542.473C2734.25 555.233 2732.17 568.124 2730.86 581.145C2729.82 593.905 2729.3 606.014 2729.3 617.473C2729.3 628.931 2729.82 641.171 2730.86 654.191C2732.17 667.212 2734.25 680.103 2737.11 692.863C2739.98 705.624 2743.89 717.863 2748.83 729.582C2754.04 741.301 2760.55 751.717 2768.36 760.832C2776.18 769.686 2785.55 776.848 2796.49 782.316C2807.43 787.525 2820.32 790.129 2835.16 790.129C2848.7 790.129 2860.68 787.395 2871.1 781.926C2881.78 776.197 2891.02 768.645 2898.83 759.27C2906.91 749.895 2913.68 739.217 2919.15 727.238C2924.61 715.259 2929.04 702.889 2932.43 690.129C2935.81 677.368 2938.29 664.738 2939.85 652.238C2941.41 639.478 2942.19 627.889 2942.19 617.473Z" fill="#380069"/>
</svg>
