<svg width="4549" height="1073" viewBox="0 0 4549 1073" fill="none" xmlns="http://www.w3.org/2000/svg">
<path d="M429.494 411.362C458.478 397.123 489.176 384.284 521.593 372.857C567.853 356.56 605.754 340.263 656.15 344.654C713.134 349.638 694.9 402.243 665.015 424.623C606.431 468.529 538.056 502.727 484.03 541.909C457.015 561.498 435.488 588.857 456.765 623.904C470.046 645.685 483.858 664.013 498.212 678.873C574.239 757.461 647.035 834.664 716.593 910.493C753.145 950.269 821.52 1037.24 730.608 1066.37C712.291 1072.28 691.692 1074.48 672.864 1068.48C634.936 1056.49 602.265 1037.49 574.858 1011.49C528.431 967.467 489.317 927.102 457.52 890.399C409.067 834.414 360.78 768.717 297.978 730.211C274.228 715.633 254.671 719.065 239.306 740.513C223.775 762.3 211.395 784.566 202.166 807.305C183.369 853.581 163.025 901.29 141.134 950.435C128.046 979.821 90.0614 1047.21 51.6499 1021.28C26.4937 1004.31 14.5926 949.758 11.3843 922.06C-7.1834 762.3 -0.600065 593.081 13.7489 427.998C20.8426 346.539 33.926 265.477 53.0041 184.81C67.0978 124.94 95.0406 34.081 151.265 4.95083C171.52 -5.52312 198.28 0.305 203.853 25.4665C213.728 70.4769 206.301 118.774 198.535 163.784C191.78 202.909 188.379 245.409 188.322 291.289C188.238 336.378 188.572 375.732 221.666 410.435C248.061 438.019 278.39 450.039 312.666 446.493C351.16 442.493 390.103 430.784 429.494 411.362Z" fill="#F98900"/>
<path d="M411.093 239.274C412.077 240.571 413.03 241.893 413.947 243.242C414.869 244.586 415.749 245.956 416.603 247.347C417.452 248.737 418.265 250.149 419.046 251.581C419.822 253.008 420.567 254.461 421.27 255.93C421.978 257.404 422.645 258.888 423.28 260.393C423.91 261.899 424.504 263.42 425.061 264.951C425.619 266.487 426.134 268.034 426.613 269.597C427.093 271.159 427.535 272.732 427.931 274.321C428.332 275.904 428.697 277.503 429.015 279.107C429.337 280.711 429.619 282.326 429.863 283.946C430.103 285.565 430.301 287.19 430.462 288.826C430.624 290.456 430.744 292.091 430.827 293.732C430.905 295.373 430.942 297.018 430.942 298.659C430.942 300.305 430.9 301.951 430.817 303.591C430.733 305.237 430.608 306.878 430.447 308.518C430.28 310.159 430.077 311.794 429.832 313.425C429.587 315.06 429.306 316.685 428.978 318.305C428.655 319.925 428.291 321.534 427.89 323.138C427.483 324.742 427.041 326.341 426.561 327.925C426.077 329.508 425.556 331.081 424.999 332.643C424.436 334.201 423.843 335.748 423.207 337.284C422.572 338.815 421.9 340.336 421.192 341.836C420.483 343.341 419.738 344.826 418.957 346.295C418.171 347.763 417.358 349.211 416.504 350.638C415.65 352.071 414.764 353.482 413.843 354.867C412.926 356.258 411.968 357.623 410.983 358.966C409.994 360.31 408.978 361.628 407.926 362.925C406.874 364.216 405.791 365.487 404.676 366.732C403.567 367.977 402.426 369.19 401.254 370.383C400.082 371.571 398.879 372.732 397.655 373.867C396.426 374.998 395.171 376.102 393.889 377.175C392.613 378.248 391.306 379.289 389.973 380.3C388.645 381.305 387.291 382.284 385.916 383.232C384.535 384.175 383.139 385.086 381.718 385.966C380.296 386.841 378.858 387.685 377.395 388.498C375.936 389.305 374.457 390.076 372.957 390.815C371.462 391.555 369.947 392.253 368.421 392.92C366.889 393.581 365.343 394.211 363.785 394.8C362.228 395.388 360.655 395.94 359.072 396.456C357.488 396.972 355.889 397.446 354.285 397.883C352.681 398.315 351.067 398.716 349.442 399.076C347.817 399.43 346.186 399.753 344.551 400.029C342.91 400.31 341.27 400.55 339.624 400.748C337.973 400.946 336.322 401.107 334.671 401.227C333.014 401.341 331.363 401.42 329.707 401.461C328.051 401.498 326.4 401.498 324.744 401.456C323.093 401.409 321.442 401.331 319.796 401.206C318.15 401.081 316.504 400.92 314.869 400.716C313.233 400.513 311.603 400.268 309.978 399.987C308.353 399.701 306.738 399.378 305.134 399.018C303.53 398.654 301.936 398.253 300.353 397.815C298.77 397.373 297.197 396.893 295.639 396.373C294.082 395.857 292.541 395.3 291.009 394.706C289.483 394.112 287.968 393.482 286.473 392.815C284.978 392.143 283.499 391.44 282.041 390.701C280.582 389.956 279.145 389.18 277.723 388.367C276.306 387.555 274.91 386.711 273.535 385.826C272.155 384.946 270.806 384.029 269.478 383.081C268.15 382.133 266.843 381.154 265.567 380.138C264.285 379.128 263.035 378.081 261.811 377.008C260.587 375.93 259.389 374.826 258.218 373.69C257.051 372.555 255.91 371.388 254.801 370.196C253.686 369.003 252.608 367.784 251.561 366.539C250.509 365.289 249.494 364.018 248.509 362.722C247.525 361.425 246.572 360.102 245.655 358.758C244.738 357.409 243.853 356.039 243.004 354.649C242.155 353.258 241.337 351.852 240.561 350.42C239.78 348.987 239.041 347.534 238.332 346.065C237.624 344.597 236.957 343.107 236.327 341.602C235.692 340.097 235.098 338.581 234.541 337.045C233.988 335.508 233.468 333.961 232.988 332.399C232.509 330.836 232.072 329.263 231.671 327.675C231.27 326.091 230.91 324.498 230.587 322.888C230.264 321.284 229.983 319.669 229.744 318.05C229.499 316.43 229.301 314.805 229.14 313.17C228.978 311.539 228.858 309.904 228.78 308.263C228.702 306.623 228.66 304.982 228.66 303.336C228.666 301.69 228.707 300.05 228.791 298.404C228.869 296.758 228.994 295.117 229.16 293.477C229.322 291.836 229.525 290.201 229.77 288.571C230.015 286.935 230.301 285.31 230.624 283.69C230.947 282.071 231.311 280.461 231.718 278.857C232.119 277.253 232.561 275.659 233.046 274.071C233.525 272.487 234.046 270.914 234.608 269.357C235.166 267.795 235.765 266.248 236.395 264.711C237.03 263.18 237.702 261.659 238.41 260.159C239.124 258.654 239.869 257.17 240.65 255.701C241.431 254.232 242.249 252.784 243.098 251.357C243.952 249.925 244.837 248.518 245.759 247.128C246.681 245.737 247.634 244.373 248.624 243.029C249.608 241.685 250.629 240.367 251.681 239.071C252.733 237.779 253.811 236.508 254.926 235.263C256.041 234.018 257.181 232.805 258.353 231.612C259.525 230.425 260.723 229.263 261.952 228.133C263.176 226.998 264.431 225.893 265.712 224.821C266.994 223.748 268.296 222.711 269.629 221.701C270.957 220.69 272.311 219.711 273.692 218.763C275.067 217.821 276.468 216.909 277.884 216.029C279.306 215.154 280.749 214.31 282.207 213.503C283.671 212.69 285.145 211.92 286.645 211.18C288.139 210.446 289.655 209.742 291.186 209.076C292.712 208.414 294.259 207.784 295.817 207.196C297.379 206.607 298.947 206.055 300.53 205.539C302.119 205.029 303.712 204.55 305.317 204.112C306.926 203.68 308.541 203.279 310.16 202.925C311.785 202.565 313.416 202.248 315.056 201.966C316.692 201.685 318.332 201.446 319.983 201.248C321.629 201.05 323.28 200.888 324.931 200.774C326.587 200.654 328.238 200.576 329.895 200.534C331.551 200.498 333.207 200.498 334.858 200.545C336.509 200.586 338.16 200.67 339.811 200.789C341.457 200.914 343.098 201.076 344.733 201.279C346.374 201.482 348.004 201.727 349.624 202.008C351.249 202.295 352.863 202.617 354.468 202.977C356.072 203.341 357.666 203.742 359.249 204.185C360.837 204.623 362.405 205.102 363.962 205.623C365.52 206.138 367.067 206.696 368.593 207.289C370.124 207.883 371.634 208.513 373.129 209.18C374.624 209.852 376.103 210.555 377.561 211.295C379.02 212.039 380.462 212.815 381.879 213.628C383.296 214.44 384.697 215.284 386.072 216.17C387.447 217.05 388.796 217.966 390.129 218.914C391.457 219.862 392.759 220.841 394.035 221.857C395.317 222.873 396.567 223.914 397.791 224.992C399.02 226.065 400.218 227.17 401.384 228.305C402.556 229.44 403.697 230.607 404.806 231.8C405.916 232.992 406.994 234.211 408.046 235.456C409.093 236.706 410.108 237.977 411.093 239.274Z" fill="#FC9F26"/>
<path d="M1292.19 585.441C1292.19 615.91 1288.42 647.681 1280.86 680.754C1273.57 713.827 1263.29 746.249 1250.01 778.02C1236.72 809.79 1220.84 839.608 1202.35 867.473C1183.86 895.598 1163.55 919.816 1141.41 940.129L1091.8 913.176C1098.83 900.155 1105.47 885.572 1111.72 869.426C1117.97 853.28 1123.57 836.223 1128.52 818.254C1133.73 800.025 1138.29 781.275 1142.19 762.004C1146.36 742.733 1149.74 723.723 1152.35 704.973C1155.21 685.962 1157.3 667.603 1158.6 649.895C1160.16 631.926 1160.94 615.259 1160.94 599.895C1160.94 589.738 1160.55 578.931 1159.77 567.473C1158.99 555.754 1157.3 544.165 1154.69 532.707C1152.35 520.988 1149.09 509.79 1144.93 499.113C1140.76 488.436 1135.16 479.061 1128.13 470.988C1121.36 462.915 1113.03 456.405 1103.13 451.457C1093.49 446.509 1082.04 444.035 1068.76 444.035C1055.73 444.035 1044.15 447.03 1033.99 453.02C1023.83 458.749 1014.85 466.431 1007.04 476.066C999.224 485.441 992.453 496.249 986.724 508.488C981.255 520.728 976.698 533.358 973.052 546.379C969.667 559.139 967.193 571.77 965.63 584.27C964.068 596.77 963.287 607.967 963.287 617.863V844.035H830.865V226.848H962.896V459.27C979.823 434.53 1000.53 415.52 1025.01 402.238C1049.74 388.697 1077.09 381.926 1107.04 381.926C1138.29 381.926 1165.5 387.004 1188.68 397.16C1211.85 407.316 1231.13 421.509 1246.49 439.738C1261.85 457.707 1273.31 479.191 1280.86 504.191C1288.42 528.931 1292.19 556.014 1292.19 585.441ZM1833.6 844.035H1701.57V790.129C1685.94 811.483 1667.06 827.368 1644.93 837.785C1623.05 847.941 1598.96 853.02 1572.66 853.02C1538.29 853.02 1507.56 846.9 1480.47 834.66C1453.39 822.421 1430.47 805.754 1411.72 784.66C1392.97 763.306 1378.65 738.306 1368.76 709.66C1358.86 681.014 1353.91 650.285 1353.91 617.473C1353.91 584.66 1358.86 553.931 1368.76 525.285C1378.65 496.639 1392.97 471.77 1411.72 450.676C1430.47 429.322 1453.39 412.525 1480.47 400.285C1507.56 388.046 1538.29 381.926 1572.66 381.926C1590.11 381.926 1606.65 384.53 1622.27 389.738C1638.16 394.947 1652.61 402.368 1665.63 412.004C1678.91 421.379 1690.5 432.837 1700.4 446.379C1710.55 459.66 1718.49 474.504 1724.22 490.91L1782.82 392.863H1833.6V844.035ZM1700.79 617.473C1700.79 605.754 1700.14 593.384 1698.83 580.363C1697.79 567.342 1695.84 554.452 1692.97 541.691C1690.11 528.931 1686.07 516.822 1680.86 505.363C1675.92 493.645 1669.41 483.358 1661.33 474.504C1653.52 465.389 1644.02 458.228 1632.82 453.02C1621.62 447.811 1608.6 445.207 1593.76 445.207C1578.91 445.207 1566.02 447.941 1555.08 453.41C1544.15 458.618 1534.77 465.78 1526.96 474.895C1519.15 483.749 1512.64 494.035 1507.43 505.754C1502.48 517.473 1498.57 529.712 1495.71 542.473C1492.84 555.233 1490.76 568.124 1489.46 581.145C1488.42 593.905 1487.9 606.014 1487.9 617.473C1487.9 628.931 1488.42 641.171 1489.46 654.191C1490.76 667.212 1492.84 680.103 1495.71 692.863C1498.57 705.624 1502.48 717.863 1507.43 729.582C1512.64 741.301 1519.15 751.717 1526.96 760.832C1534.77 769.686 1544.15 776.848 1555.08 782.316C1566.02 787.525 1578.91 790.129 1593.76 790.129C1607.3 790.129 1619.28 787.395 1629.69 781.926C1640.37 776.197 1649.61 768.645 1657.43 759.27C1665.5 749.895 1672.27 739.217 1677.74 727.238C1683.21 715.259 1687.64 702.889 1691.02 690.129C1694.41 677.368 1696.88 664.738 1698.44 652.238C1700.01 639.478 1700.79 627.889 1700.79 617.473ZM2398.83 844.035H2348.05L2289.46 745.988C2283.73 762.395 2275.79 777.238 2265.63 790.52C2255.73 803.801 2244.15 815.259 2230.86 824.895C2217.84 834.27 2203.39 841.561 2187.51 846.77C2171.88 851.978 2155.34 854.582 2137.9 854.582C2103.52 854.582 2072.79 848.462 2045.71 836.223C2018.63 823.983 1995.71 807.316 1976.96 786.223C1958.21 764.868 1943.89 739.868 1933.99 711.223C1924.09 682.577 1919.15 651.848 1919.15 619.035C1919.15 586.223 1924.09 555.493 1933.99 526.848C1943.89 498.202 1958.21 473.332 1976.96 452.238C1995.71 431.145 2018.63 414.478 2045.71 402.238C2072.79 389.999 2103.52 383.879 2137.9 383.879C2164.2 383.879 2188.29 388.957 2210.16 399.113C2232.3 409.27 2251.18 425.155 2266.8 446.77V226.848H2398.83V844.035ZM2266.02 619.035C2266.02 608.618 2265.24 597.16 2263.68 584.66C2262.11 572.16 2259.64 559.53 2256.26 546.77C2252.87 534.009 2248.44 521.639 2242.97 509.66C2237.51 497.681 2230.73 487.004 2222.66 477.629C2214.85 468.254 2205.6 460.832 2194.93 455.363C2184.51 449.634 2172.53 446.77 2158.99 446.77C2144.15 446.77 2131.26 449.504 2120.32 454.973C2109.38 460.181 2100.01 467.342 2092.19 476.457C2084.38 485.311 2077.87 495.598 2072.66 507.316C2067.71 519.035 2063.81 531.275 2060.94 544.035C2058.08 556.796 2055.99 569.686 2054.69 582.707C2053.65 595.467 2053.13 607.577 2053.13 619.035C2053.13 630.493 2053.65 642.733 2054.69 655.754C2055.99 668.514 2058.08 681.275 2060.94 694.035C2063.81 706.796 2067.71 719.165 2072.66 731.145C2077.87 742.863 2084.38 753.28 2092.19 762.395C2100.01 771.249 2109.38 778.41 2120.32 783.879C2131.26 789.087 2144.15 791.691 2158.99 791.691C2173.83 791.691 2186.85 789.087 2198.05 783.879C2209.25 778.671 2218.76 771.639 2226.57 762.785C2234.64 753.671 2241.15 743.384 2246.1 731.926C2251.31 720.207 2255.34 707.967 2258.21 695.207C2261.07 682.186 2263.03 669.165 2264.07 656.145C2265.37 643.124 2266.02 630.754 2266.02 619.035ZM2617.58 629.973C2633.73 633.618 2649.88 636.483 2666.02 638.566C2682.17 640.65 2698.44 641.691 2714.85 641.691C2732.04 641.691 2747.92 640.129 2762.51 637.004C2777.35 633.618 2790.11 628.15 2800.79 620.598C2811.72 612.785 2820.32 602.499 2826.57 589.738C2832.82 576.978 2835.94 561.092 2835.94 542.082C2835.94 526.717 2833.86 512.655 2829.69 499.895C2825.53 487.134 2819.28 476.197 2810.94 467.082C2802.87 457.967 2792.84 450.936 2780.86 445.988C2768.89 440.78 2754.95 438.176 2739.07 438.176C2724.22 438.176 2710.81 440.91 2698.83 446.379C2687.11 451.848 2676.7 459.27 2667.58 468.645C2658.73 477.759 2651.05 488.436 2644.54 500.676C2638.29 512.915 2633.08 525.676 2628.91 538.957C2624.74 552.238 2621.75 565.65 2619.93 579.191C2618.1 592.733 2617.19 605.493 2617.19 617.473C2617.19 619.556 2617.19 621.639 2617.19 623.723C2617.19 625.806 2617.32 627.889 2617.58 629.973ZM2942.97 540.91C2942.97 559.4 2939.98 575.936 2933.99 590.52C2928 604.842 2919.8 617.473 2909.38 628.41C2899.22 639.348 2887.38 648.592 2873.83 656.145C2860.29 663.697 2845.84 669.947 2830.47 674.895C2815.11 679.582 2799.22 682.967 2782.82 685.051C2766.67 687.134 2750.92 688.176 2735.55 688.176C2716.02 688.176 2696.75 686.874 2677.74 684.27C2658.73 681.405 2639.98 676.978 2621.49 670.988C2624.35 688.176 2628.91 704.582 2635.16 720.207C2641.41 735.572 2649.74 749.113 2660.16 760.832C2670.58 772.29 2683.34 781.405 2698.44 788.176C2713.81 794.947 2731.91 798.332 2752.74 798.332C2766.54 798.332 2779.69 796.249 2792.19 792.082C2804.69 787.915 2816.15 782.056 2826.57 774.504C2836.98 766.952 2846.1 757.967 2853.91 747.551C2861.98 737.134 2868.49 725.546 2873.44 712.785L2930.47 733.879C2921.88 754.452 2910.03 772.29 2894.93 787.395C2880.08 802.238 2863.16 814.608 2844.15 824.504C2825.4 834.139 2805.34 841.301 2783.99 845.988C2762.9 850.676 2741.93 853.02 2721.1 853.02C2686.72 853.02 2654.95 847.29 2625.79 835.832C2596.62 824.113 2571.49 807.837 2550.4 787.004C2529.3 766.171 2512.77 741.301 2500.79 712.395C2488.81 683.488 2482.82 651.848 2482.82 617.473C2482.82 583.098 2488.81 551.457 2500.79 522.551C2512.77 493.645 2529.3 468.775 2550.4 447.941C2571.49 427.108 2596.62 410.962 2625.79 399.504C2654.95 387.785 2686.72 381.926 2721.1 381.926C2737.77 381.926 2754.82 383.098 2772.27 385.441C2789.72 387.785 2806.65 391.561 2823.05 396.77C2839.46 401.717 2854.95 408.228 2869.54 416.301C2884.12 424.374 2896.75 434.4 2907.43 446.379C2918.36 458.098 2926.96 471.77 2933.21 487.395C2939.72 503.02 2942.97 520.858 2942.97 540.91ZM3723.44 580.754C3723.44 611.743 3719.8 644.035 3712.51 677.629C3705.21 711.223 3694.93 744.035 3681.65 776.066C3668.63 807.837 3652.87 837.915 3634.38 866.301C3615.89 894.686 3595.32 919.296 3572.66 940.129L3523.05 913.176C3530.6 899.634 3537.51 884.4 3543.76 867.473C3550.01 850.546 3555.73 832.707 3560.94 813.957C3566.15 795.207 3570.71 775.936 3574.61 756.145C3578.52 736.353 3581.78 716.691 3584.38 697.16C3587.24 677.368 3589.33 658.228 3590.63 639.738C3591.93 621.249 3592.58 603.931 3592.58 587.785C3592.58 578.671 3592.32 568.775 3591.8 558.098C3591.28 547.421 3590.11 536.743 3588.29 526.066C3586.72 515.389 3584.25 505.233 3580.86 495.598C3577.48 485.702 3572.79 476.978 3566.8 469.426C3561.07 461.613 3553.78 455.493 3544.93 451.066C3536.33 446.379 3525.92 444.035 3513.68 444.035C3501.7 444.035 3491.41 447.29 3482.82 453.801C3474.48 460.051 3467.32 468.254 3461.33 478.41C3455.34 488.566 3450.53 500.025 3446.88 512.785C3443.49 525.546 3440.89 538.436 3439.07 551.457C3437.24 564.217 3435.94 576.457 3435.16 588.176C3434.64 599.895 3434.38 609.79 3434.38 617.863V844.035H3302.74V633.879C3302.74 624.764 3302.87 613.827 3303.13 601.066C3303.39 588.046 3303 574.504 3301.96 560.441C3301.18 546.379 3299.48 532.447 3296.88 518.645C3294.54 504.582 3290.63 492.082 3285.16 481.145C3279.95 470.207 3272.79 461.353 3263.68 454.582C3254.56 447.551 3243.1 444.035 3229.3 444.035C3217.58 444.035 3207.69 447.29 3199.61 453.801C3191.8 460.311 3185.16 468.775 3179.69 479.191C3174.48 489.348 3170.32 500.936 3167.19 513.957C3164.33 526.717 3162.11 539.608 3160.55 552.629C3159.25 565.389 3158.47 577.629 3158.21 589.348C3157.95 600.806 3157.82 610.311 3157.82 617.863V844.035H3025.4V392.863H3076.18L3124.61 497.941C3135.55 461.483 3152.74 433.098 3176.18 412.785C3199.88 392.212 3231.26 381.926 3270.32 381.926C3305.47 381.926 3334.64 389.217 3357.82 403.801C3380.99 418.384 3399.22 442.082 3412.51 474.895C3420.06 460.572 3428.39 447.681 3437.51 436.223C3446.88 424.764 3457.17 414.999 3468.36 406.926C3479.82 398.853 3492.45 392.733 3506.26 388.566C3520.06 384.139 3535.29 381.926 3551.96 381.926C3582.69 381.926 3608.86 387.004 3630.47 397.16C3652.35 407.056 3670.19 420.858 3683.99 438.566C3697.79 456.275 3707.82 477.368 3714.07 501.848C3720.32 526.066 3723.44 552.368 3723.44 580.754ZM4272.66 585.441C4272.66 615.91 4268.89 647.681 4261.33 680.754C4254.04 713.827 4243.76 746.249 4230.47 778.02C4217.19 809.79 4201.31 839.608 4182.82 867.473C4164.33 895.598 4144.02 919.816 4121.88 940.129L4072.27 913.176C4079.3 900.155 4085.94 885.572 4092.19 869.426C4098.44 853.28 4104.04 836.223 4108.99 818.254C4114.2 800.025 4118.76 781.275 4122.66 762.004C4126.83 742.733 4130.21 723.723 4132.82 704.973C4135.68 685.962 4137.77 667.603 4139.07 649.895C4140.63 631.926 4141.41 615.259 4141.41 599.895C4141.41 589.738 4141.02 578.931 4140.24 567.473C4139.46 555.754 4137.77 544.165 4135.16 532.707C4132.82 520.988 4129.56 509.79 4125.4 499.113C4121.23 488.436 4115.63 479.061 4108.6 470.988C4101.83 462.915 4093.49 456.405 4083.6 451.457C4073.96 446.509 4062.51 444.035 4049.22 444.035C4036.2 444.035 4024.61 447.03 4014.46 453.02C4004.3 458.749 3995.32 466.431 3987.51 476.066C3979.69 485.441 3972.92 496.249 3967.19 508.488C3961.72 520.728 3957.17 533.358 3953.52 546.379C3950.14 559.139 3947.66 571.77 3946.1 584.27C3944.54 596.77 3943.76 607.967 3943.76 617.863V844.035H3811.33V392.863H3862.11L3922.66 497.941C3929.95 480.493 3939.07 464.608 3950.01 450.285C3960.94 435.962 3973.31 423.723 3987.11 413.566C4000.92 403.41 4016.15 395.598 4032.82 390.129C4049.74 384.66 4067.97 381.926 4087.51 381.926C4118.76 381.926 4145.97 387.004 4169.15 397.16C4192.32 407.316 4211.59 421.509 4226.96 439.738C4242.32 457.707 4253.78 479.191 4261.33 504.191C4268.89 528.931 4272.66 556.014 4272.66 585.441ZM4498.44 283.879C4498.44 293.775 4496.49 303.15 4492.58 312.004C4488.94 320.858 4483.86 328.54 4477.35 335.051C4470.84 341.561 4463.16 346.77 4454.3 350.676C4445.45 354.322 4436.07 356.145 4426.18 356.145C4416.28 356.145 4406.91 354.322 4398.05 350.676C4389.46 346.77 4381.91 341.561 4375.4 335.051C4368.89 328.54 4363.68 320.858 4359.77 312.004C4356.13 303.15 4354.3 293.775 4354.3 283.879C4354.3 273.983 4356.13 264.738 4359.77 256.145C4363.68 247.29 4368.89 239.608 4375.4 233.098C4381.91 226.587 4389.46 221.509 4398.05 217.863C4406.91 213.957 4416.28 212.004 4426.18 212.004C4436.07 212.004 4445.45 213.957 4454.3 217.863C4463.16 221.509 4470.84 226.587 4477.35 233.098C4483.86 239.608 4488.94 247.29 4492.58 256.145C4496.49 264.738 4498.44 273.983 4498.44 283.879ZM4492.58 844.035H4360.16V393.254H4492.58V844.035Z" fill="#380069"/>
</svg>
