<svg width="776" height="1073" viewBox="0 0 776 1073" fill="none" xmlns="http://www.w3.org/2000/svg">
<path d="M429.494 411.362C458.478 397.123 489.176 384.284 521.593 372.857C567.853 356.56 605.754 340.263 656.15 344.654C713.134 349.638 694.9 402.243 665.015 424.623C606.431 468.529 538.056 502.727 484.03 541.909C457.015 561.498 435.488 588.857 456.765 623.904C470.046 645.685 483.858 664.013 498.212 678.873C574.239 757.461 647.035 834.664 716.593 910.493C753.145 950.269 821.52 1037.24 730.608 1066.37C712.291 1072.28 691.692 1074.48 672.864 1068.48C634.936 1056.49 602.265 1037.49 574.858 1011.49C528.431 967.467 489.317 927.102 457.52 890.399C409.067 834.414 360.78 768.717 297.978 730.211C274.228 715.633 254.671 719.066 239.306 740.513C223.775 762.3 211.395 784.566 202.166 807.305C183.369 853.581 163.025 901.29 141.134 950.435C128.046 979.821 90.0614 1047.21 51.6499 1021.28C26.4937 1004.31 14.5926 949.758 11.3843 922.06C-7.1834 762.3 -0.600065 593.081 13.7489 427.998C20.8426 346.539 33.926 265.477 53.0041 184.81C67.0978 124.94 95.0406 34.081 151.265 4.95083C171.52 -5.52312 198.28 0.305 203.853 25.4665C213.728 70.4769 206.301 118.774 198.535 163.784C191.78 202.909 188.379 245.409 188.322 291.289C188.238 336.378 188.572 375.732 221.666 410.435C248.061 438.019 278.39 450.039 312.666 446.493C351.16 442.493 390.103 430.784 429.494 411.362Z" fill="#F98900"/>
<path d="M411.093 239.274C412.077 240.571 413.03 241.893 413.947 243.242C414.869 244.586 415.749 245.956 416.603 247.347C417.452 248.737 418.265 250.149 419.046 251.581C419.822 253.008 420.567 254.461 421.27 255.93C421.978 257.404 422.645 258.888 423.28 260.393C423.91 261.899 424.504 263.42 425.061 264.951C425.619 266.487 426.134 268.034 426.613 269.597C427.093 271.159 427.535 272.732 427.931 274.321C428.332 275.904 428.697 277.503 429.015 279.107C429.337 280.711 429.619 282.326 429.863 283.946C430.103 285.565 430.301 287.19 430.462 288.826C430.624 290.456 430.744 292.091 430.827 293.732C430.905 295.373 430.942 297.018 430.942 298.659C430.942 300.305 430.9 301.951 430.817 303.591C430.733 305.237 430.608 306.878 430.447 308.518C430.28 310.159 430.077 311.795 429.832 313.425C429.587 315.06 429.306 316.685 428.978 318.305C428.655 319.925 428.291 321.534 427.89 323.138C427.483 324.742 427.041 326.341 426.561 327.925C426.077 329.508 425.556 331.081 424.999 332.643C424.436 334.201 423.843 335.748 423.207 337.284C422.572 338.815 421.9 340.336 421.192 341.836C420.483 343.341 419.738 344.826 418.957 346.295C418.171 347.763 417.358 349.211 416.504 350.638C415.65 352.071 414.764 353.482 413.843 354.867C412.926 356.258 411.968 357.623 410.983 358.966C409.994 360.31 408.978 361.628 407.926 362.925C406.874 364.216 405.791 365.487 404.676 366.732C403.567 367.977 402.426 369.19 401.254 370.383C400.082 371.571 398.879 372.732 397.655 373.867C396.426 374.998 395.171 376.102 393.889 377.175C392.613 378.248 391.306 379.289 389.973 380.3C388.645 381.305 387.291 382.284 385.916 383.232C384.535 384.175 383.139 385.086 381.718 385.966C380.296 386.841 378.858 387.685 377.395 388.498C375.936 389.305 374.457 390.076 372.957 390.815C371.462 391.555 369.947 392.253 368.421 392.92C366.889 393.581 365.343 394.211 363.785 394.8C362.228 395.388 360.655 395.94 359.072 396.456C357.488 396.972 355.89 397.446 354.285 397.883C352.681 398.315 351.067 398.716 349.442 399.076C347.817 399.43 346.186 399.753 344.551 400.029C342.91 400.31 341.27 400.55 339.624 400.748C337.973 400.946 336.322 401.107 334.671 401.227C333.014 401.341 331.363 401.42 329.707 401.461C328.051 401.498 326.4 401.498 324.744 401.456C323.093 401.409 321.442 401.331 319.796 401.206C318.15 401.081 316.504 400.92 314.869 400.716C313.233 400.513 311.603 400.268 309.978 399.987C308.353 399.701 306.738 399.378 305.134 399.018C303.53 398.654 301.936 398.253 300.353 397.815C298.77 397.373 297.197 396.893 295.639 396.373C294.082 395.857 292.541 395.3 291.009 394.706C289.483 394.112 287.968 393.482 286.473 392.815C284.978 392.143 283.499 391.44 282.041 390.701C280.582 389.956 279.145 389.18 277.723 388.367C276.306 387.555 274.91 386.711 273.535 385.826C272.155 384.946 270.806 384.029 269.478 383.081C268.15 382.133 266.843 381.154 265.567 380.138C264.285 379.128 263.035 378.081 261.811 377.008C260.587 375.93 259.389 374.826 258.218 373.69C257.051 372.555 255.91 371.388 254.801 370.196C253.686 369.003 252.608 367.784 251.561 366.539C250.509 365.289 249.494 364.018 248.509 362.722C247.525 361.425 246.572 360.102 245.655 358.758C244.738 357.409 243.853 356.039 243.004 354.649C242.155 353.258 241.337 351.852 240.561 350.42C239.78 348.987 239.041 347.534 238.332 346.065C237.624 344.597 236.957 343.107 236.327 341.602C235.692 340.097 235.098 338.581 234.541 337.045C233.988 335.508 233.468 333.961 232.988 332.399C232.509 330.836 232.072 329.263 231.671 327.675C231.27 326.091 230.91 324.498 230.587 322.888C230.265 321.284 229.983 319.67 229.744 318.05C229.499 316.43 229.301 314.805 229.14 313.17C228.978 311.539 228.858 309.904 228.78 308.263C228.702 306.623 228.66 304.982 228.66 303.336C228.666 301.69 228.707 300.05 228.791 298.404C228.869 296.758 228.994 295.117 229.16 293.477C229.322 291.836 229.525 290.201 229.77 288.571C230.015 286.935 230.301 285.31 230.624 283.69C230.947 282.071 231.311 280.461 231.718 278.857C232.119 277.253 232.561 275.659 233.046 274.071C233.525 272.487 234.046 270.914 234.608 269.357C235.166 267.795 235.765 266.248 236.395 264.711C237.03 263.18 237.702 261.659 238.41 260.159C239.124 258.654 239.869 257.17 240.65 255.701C241.431 254.232 242.249 252.784 243.098 251.357C243.952 249.925 244.837 248.518 245.759 247.128C246.681 245.737 247.634 244.373 248.624 243.029C249.608 241.685 250.629 240.367 251.681 239.071C252.733 237.779 253.811 236.508 254.926 235.263C256.041 234.018 257.181 232.805 258.353 231.612C259.525 230.425 260.723 229.263 261.952 228.133C263.176 226.998 264.431 225.893 265.712 224.821C266.994 223.748 268.296 222.711 269.629 221.701C270.957 220.69 272.311 219.711 273.692 218.763C275.067 217.821 276.468 216.909 277.884 216.029C279.306 215.154 280.749 214.31 282.207 213.503C283.671 212.69 285.145 211.92 286.645 211.18C288.14 210.446 289.655 209.742 291.186 209.076C292.712 208.414 294.259 207.784 295.817 207.196C297.379 206.607 298.947 206.055 300.53 205.539C302.119 205.029 303.712 204.55 305.317 204.112C306.926 203.68 308.541 203.279 310.16 202.925C311.785 202.565 313.416 202.248 315.056 201.966C316.692 201.685 318.332 201.446 319.983 201.248C321.629 201.05 323.28 200.888 324.931 200.774C326.587 200.654 328.238 200.576 329.895 200.534C331.551 200.498 333.207 200.498 334.858 200.545C336.509 200.586 338.16 200.67 339.811 200.789C341.457 200.914 343.098 201.076 344.733 201.279C346.374 201.482 348.004 201.727 349.624 202.008C351.249 202.295 352.863 202.617 354.468 202.977C356.072 203.341 357.666 203.742 359.249 204.185C360.837 204.623 362.405 205.102 363.962 205.623C365.52 206.138 367.067 206.696 368.593 207.289C370.124 207.883 371.634 208.513 373.129 209.18C374.624 209.852 376.103 210.555 377.561 211.295C379.02 212.039 380.462 212.815 381.879 213.628C383.296 214.44 384.697 215.284 386.072 216.17C387.447 217.05 388.796 217.966 390.129 218.914C391.457 219.862 392.759 220.841 394.035 221.857C395.317 222.873 396.567 223.914 397.791 224.992C399.02 226.065 400.218 227.17 401.384 228.305C402.556 229.44 403.697 230.607 404.806 231.8C405.916 232.992 406.994 234.211 408.046 235.456C409.093 236.706 410.108 237.977 411.093 239.274Z" fill="#FC9F26"/>
</svg>
