<svg width="4001" height="1073" viewBox="0 0 4001 1073" fill="none" xmlns="http://www.w3.org/2000/svg">
<path d="M429.494 411.362C458.478 397.123 489.176 384.284 521.593 372.857C567.853 356.56 605.754 340.263 656.15 344.654C713.134 349.638 694.9 402.243 665.015 424.623C606.431 468.529 538.056 502.727 484.03 541.909C457.015 561.498 435.488 588.857 456.765 623.904C470.046 645.685 483.858 664.013 498.212 678.873C574.239 757.461 647.035 834.664 716.593 910.493C753.145 950.269 821.52 1037.24 730.608 1066.37C712.291 1072.28 691.692 1074.48 672.864 1068.48C634.936 1056.49 602.265 1037.49 574.858 1011.49C528.431 967.467 489.317 927.102 457.52 890.399C409.067 834.414 360.78 768.717 297.978 730.211C274.228 715.633 254.671 719.066 239.306 740.513C223.775 762.3 211.395 784.566 202.166 807.305C183.369 853.581 163.025 901.29 141.134 950.435C128.046 979.821 90.0614 1047.21 51.6499 1021.28C26.4937 1004.31 14.5926 949.758 11.3843 922.06C-7.1834 762.3 -0.600065 593.081 13.7489 427.998C20.8426 346.539 33.926 265.477 53.0041 184.81C67.0978 124.94 95.0406 34.081 151.265 4.95083C171.52 -5.52312 198.28 0.305 203.853 25.4665C213.728 70.4769 206.301 118.774 198.535 163.784C191.78 202.909 188.379 245.409 188.322 291.289C188.238 336.378 188.572 375.732 221.666 410.435C248.061 438.019 278.39 450.039 312.666 446.493C351.16 442.493 390.103 430.784 429.494 411.362Z" fill="#F98900"/>
<path d="M411.093 239.274C412.077 240.571 413.03 241.893 413.947 243.242C414.869 244.586 415.749 245.956 416.603 247.347C417.452 248.737 418.265 250.149 419.046 251.581C419.822 253.008 420.567 254.461 421.27 255.93C421.978 257.404 422.645 258.888 423.28 260.393C423.91 261.899 424.504 263.42 425.061 264.951C425.619 266.487 426.134 268.034 426.613 269.597C427.093 271.159 427.535 272.732 427.931 274.321C428.332 275.904 428.697 277.503 429.015 279.107C429.337 280.711 429.619 282.326 429.863 283.946C430.103 285.565 430.301 287.19 430.462 288.826C430.624 290.456 430.744 292.091 430.827 293.732C430.905 295.373 430.942 297.018 430.942 298.659C430.942 300.305 430.9 301.951 430.817 303.591C430.733 305.237 430.608 306.878 430.447 308.518C430.28 310.159 430.077 311.795 429.832 313.425C429.587 315.06 429.306 316.685 428.978 318.305C428.655 319.925 428.291 321.534 427.89 323.138C427.483 324.742 427.041 326.341 426.561 327.925C426.077 329.508 425.556 331.081 424.999 332.643C424.436 334.201 423.843 335.748 423.207 337.284C422.572 338.815 421.9 340.336 421.192 341.836C420.483 343.341 419.738 344.826 418.957 346.295C418.171 347.763 417.358 349.211 416.504 350.638C415.65 352.071 414.764 353.482 413.843 354.867C412.926 356.258 411.968 357.623 410.983 358.966C409.994 360.31 408.978 361.628 407.926 362.925C406.874 364.216 405.791 365.487 404.676 366.732C403.567 367.977 402.426 369.19 401.254 370.383C400.082 371.571 398.879 372.732 397.655 373.867C396.426 374.998 395.171 376.102 393.889 377.175C392.613 378.248 391.306 379.289 389.973 380.3C388.645 381.305 387.291 382.284 385.916 383.232C384.535 384.175 383.139 385.086 381.718 385.966C380.296 386.841 378.858 387.685 377.395 388.498C375.936 389.305 374.457 390.076 372.957 390.815C371.462 391.555 369.947 392.253 368.421 392.92C366.889 393.581 365.343 394.211 363.785 394.8C362.228 395.388 360.655 395.94 359.072 396.456C357.488 396.972 355.89 397.446 354.285 397.883C352.681 398.315 351.067 398.716 349.442 399.076C347.817 399.43 346.186 399.753 344.551 400.029C342.91 400.31 341.27 400.55 339.624 400.748C337.973 400.946 336.322 401.107 334.671 401.227C333.014 401.341 331.363 401.42 329.707 401.461C328.051 401.498 326.4 401.498 324.744 401.456C323.093 401.409 321.442 401.331 319.796 401.206C318.15 401.081 316.504 400.92 314.869 400.716C313.233 400.513 311.603 400.268 309.978 399.987C308.353 399.701 306.738 399.378 305.134 399.018C303.53 398.654 301.936 398.253 300.353 397.815C298.77 397.373 297.197 396.893 295.639 396.373C294.082 395.857 292.541 395.3 291.009 394.706C289.483 394.112 287.968 393.482 286.473 392.815C284.978 392.143 283.499 391.44 282.041 390.701C280.582 389.956 279.145 389.18 277.723 388.367C276.306 387.555 274.91 386.711 273.535 385.826C272.155 384.946 270.806 384.029 269.478 383.081C268.15 382.133 266.843 381.154 265.567 380.138C264.285 379.128 263.035 378.081 261.811 377.008C260.587 375.93 259.389 374.826 258.218 373.69C257.051 372.555 255.91 371.388 254.801 370.196C253.686 369.003 252.608 367.784 251.561 366.539C250.509 365.289 249.494 364.018 248.509 362.722C247.525 361.425 246.572 360.102 245.655 358.758C244.738 357.409 243.853 356.039 243.004 354.649C242.155 353.258 241.337 351.852 240.561 350.42C239.78 348.987 239.041 347.534 238.332 346.065C237.624 344.597 236.957 343.107 236.327 341.602C235.692 340.097 235.098 338.581 234.541 337.045C233.988 335.508 233.468 333.961 232.988 332.399C232.509 330.836 232.072 329.263 231.671 327.675C231.27 326.091 230.91 324.498 230.587 322.888C230.265 321.284 229.983 319.67 229.744 318.05C229.499 316.43 229.301 314.805 229.14 313.17C228.978 311.539 228.858 309.904 228.78 308.263C228.702 306.623 228.66 304.982 228.66 303.336C228.666 301.69 228.707 300.05 228.791 298.404C228.869 296.758 228.994 295.117 229.16 293.477C229.322 291.836 229.525 290.201 229.77 288.571C230.015 286.935 230.301 285.31 230.624 283.69C230.947 282.071 231.311 280.461 231.718 278.857C232.119 277.253 232.561 275.659 233.046 274.071C233.525 272.487 234.046 270.914 234.608 269.357C235.166 267.795 235.765 266.248 236.395 264.711C237.03 263.18 237.702 261.659 238.41 260.159C239.124 258.654 239.869 257.17 240.65 255.701C241.431 254.232 242.249 252.784 243.098 251.357C243.952 249.925 244.837 248.518 245.759 247.128C246.681 245.737 247.634 244.373 248.624 243.029C249.608 241.685 250.629 240.367 251.681 239.071C252.733 237.779 253.811 236.508 254.926 235.263C256.041 234.018 257.181 232.805 258.353 231.612C259.525 230.425 260.723 229.263 261.952 228.133C263.176 226.998 264.431 225.893 265.712 224.821C266.994 223.748 268.296 222.711 269.629 221.701C270.957 220.69 272.311 219.711 273.692 218.763C275.067 217.821 276.468 216.909 277.884 216.029C279.306 215.154 280.749 214.31 282.207 213.503C283.671 212.69 285.145 211.92 286.645 211.18C288.14 210.446 289.655 209.742 291.186 209.076C292.712 208.414 294.259 207.784 295.817 207.196C297.379 206.607 298.947 206.055 300.53 205.539C302.119 205.029 303.712 204.55 305.317 204.112C306.926 203.68 308.541 203.279 310.16 202.925C311.785 202.565 313.416 202.248 315.056 201.966C316.692 201.685 318.332 201.446 319.983 201.248C321.629 201.05 323.28 200.888 324.931 200.774C326.587 200.654 328.238 200.576 329.895 200.534C331.551 200.498 333.207 200.498 334.858 200.545C336.509 200.586 338.16 200.67 339.811 200.789C341.457 200.914 343.098 201.076 344.733 201.279C346.374 201.482 348.004 201.727 349.624 202.008C351.249 202.295 352.863 202.617 354.468 202.977C356.072 203.341 357.666 203.742 359.249 204.185C360.837 204.623 362.405 205.102 363.962 205.623C365.52 206.138 367.067 206.696 368.593 207.289C370.124 207.883 371.634 208.513 373.129 209.18C374.624 209.852 376.103 210.555 377.561 211.295C379.02 212.039 380.462 212.815 381.879 213.628C383.296 214.44 384.697 215.284 386.072 216.17C387.447 217.05 388.796 217.966 390.129 218.914C391.457 219.862 392.759 220.841 394.035 221.857C395.317 222.873 396.567 223.914 397.791 224.992C399.02 226.065 400.218 227.17 401.384 228.305C402.556 229.44 403.697 230.607 404.806 231.8C405.916 232.992 406.994 234.211 408.046 235.456C409.093 236.706 410.108 237.977 411.093 239.274Z" fill="#FC9F26"/>
<path d="M1285.16 844.035H1153.13V790.129C1137.51 811.483 1118.63 827.368 1096.49 837.785C1074.61 847.941 1050.53 853.02 1024.22 853.02C989.849 853.02 959.12 846.9 932.037 834.66C904.953 822.421 882.037 805.754 863.287 784.66C844.537 763.306 830.214 738.306 820.318 709.66C810.422 681.014 805.474 650.285 805.474 617.473C805.474 584.66 810.422 553.931 820.318 525.285C830.214 496.639 844.537 471.77 863.287 450.676C882.037 429.322 904.953 412.525 932.037 400.285C959.12 388.046 989.849 381.926 1024.22 381.926C1041.67 381.926 1058.21 384.53 1073.83 389.738C1089.72 394.947 1104.17 402.368 1117.19 412.004C1130.47 421.379 1142.06 432.837 1151.96 446.379C1162.11 459.66 1170.06 474.504 1175.79 490.91L1234.38 392.863H1285.16V844.035ZM1152.35 617.473C1152.35 605.754 1151.7 593.384 1150.4 580.363C1149.35 567.342 1147.4 554.452 1144.54 541.691C1141.67 528.931 1137.64 516.822 1132.43 505.363C1127.48 493.645 1120.97 483.358 1112.9 474.504C1105.08 465.389 1095.58 458.228 1084.38 453.02C1073.18 447.811 1060.16 445.207 1045.32 445.207C1030.47 445.207 1017.58 447.941 1006.65 453.41C995.708 458.618 986.333 465.78 978.521 474.895C970.708 483.749 964.198 494.035 958.99 505.754C954.042 517.473 950.136 529.712 947.271 542.473C944.406 555.233 942.323 568.124 941.021 581.145C939.979 593.905 939.458 606.014 939.458 617.473C939.458 628.931 939.979 641.171 941.021 654.191C942.323 667.212 944.406 680.103 947.271 692.863C950.136 705.624 954.042 717.863 958.99 729.582C964.198 741.301 970.708 751.717 978.521 760.832C986.333 769.686 995.708 776.848 1006.65 782.316C1017.58 787.525 1030.47 790.129 1045.32 790.129C1058.86 790.129 1070.84 787.395 1081.26 781.926C1091.93 776.197 1101.18 768.645 1108.99 759.27C1117.06 749.895 1123.83 739.217 1129.3 727.238C1134.77 715.259 1139.2 702.889 1142.58 690.129C1145.97 677.368 1148.44 664.738 1150.01 652.238C1151.57 639.478 1152.35 627.889 1152.35 617.473ZM1850.4 844.035H1799.61L1741.02 745.988C1735.29 762.395 1727.35 777.238 1717.19 790.52C1707.3 803.801 1695.71 815.259 1682.43 824.895C1669.41 834.27 1654.95 841.561 1639.07 846.77C1623.44 851.978 1606.91 854.582 1589.46 854.582C1555.08 854.582 1524.35 848.462 1497.27 836.223C1470.19 823.983 1447.27 807.316 1428.52 786.223C1409.77 764.868 1395.45 739.868 1385.55 711.223C1375.66 682.577 1370.71 651.848 1370.71 619.035C1370.71 586.223 1375.66 555.493 1385.55 526.848C1395.45 498.202 1409.77 473.332 1428.52 452.238C1447.27 431.145 1470.19 414.478 1497.27 402.238C1524.35 389.999 1555.08 383.879 1589.46 383.879C1615.76 383.879 1639.85 388.957 1661.72 399.113C1683.86 409.27 1702.74 425.155 1718.36 446.77V226.848H1850.4V844.035ZM1717.58 619.035C1717.58 608.618 1716.8 597.16 1715.24 584.66C1713.68 572.16 1711.2 559.53 1707.82 546.77C1704.43 534.009 1700.01 521.639 1694.54 509.66C1689.07 497.681 1682.3 487.004 1674.22 477.629C1666.41 468.254 1657.17 460.832 1646.49 455.363C1636.07 449.634 1624.09 446.77 1610.55 446.77C1595.71 446.77 1582.82 449.504 1571.88 454.973C1560.94 460.181 1551.57 467.342 1543.76 476.457C1535.94 485.311 1529.43 495.598 1524.22 507.316C1519.28 519.035 1515.37 531.275 1512.51 544.035C1509.64 556.796 1507.56 569.686 1506.26 582.707C1505.21 595.467 1504.69 607.577 1504.69 619.035C1504.69 630.493 1505.21 642.733 1506.26 655.754C1507.56 668.514 1509.64 681.275 1512.51 694.035C1515.37 706.796 1519.28 719.165 1524.22 731.145C1529.43 742.863 1535.94 753.28 1543.76 762.395C1551.57 771.249 1560.94 778.41 1571.88 783.879C1582.82 789.087 1595.71 791.691 1610.55 791.691C1625.4 791.691 1638.42 789.087 1649.61 783.879C1660.81 778.671 1670.32 771.639 1678.13 762.785C1686.2 753.671 1692.71 743.384 1697.66 731.926C1702.87 720.207 1706.91 707.967 1709.77 695.207C1712.64 682.186 1714.59 669.165 1715.63 656.145C1716.93 643.124 1717.58 630.754 1717.58 619.035ZM2069.15 629.973C2085.29 633.618 2101.44 636.483 2117.58 638.566C2133.73 640.65 2150.01 641.691 2166.41 641.691C2183.6 641.691 2199.48 640.129 2214.07 637.004C2228.91 633.618 2241.67 628.15 2252.35 620.598C2263.29 612.785 2271.88 602.499 2278.13 589.738C2284.38 576.978 2287.51 561.092 2287.51 542.082C2287.51 526.717 2285.42 512.655 2281.26 499.895C2277.09 487.134 2270.84 476.197 2262.51 467.082C2254.43 457.967 2244.41 450.936 2232.43 445.988C2220.45 440.78 2206.52 438.176 2190.63 438.176C2175.79 438.176 2162.38 440.91 2150.4 446.379C2138.68 451.848 2128.26 459.27 2119.15 468.645C2110.29 477.759 2102.61 488.436 2096.1 500.676C2089.85 512.915 2084.64 525.676 2080.47 538.957C2076.31 552.238 2073.31 565.65 2071.49 579.191C2069.67 592.733 2068.76 605.493 2068.76 617.473C2068.76 619.556 2068.76 621.639 2068.76 623.723C2068.76 625.806 2068.89 627.889 2069.15 629.973ZM2394.54 540.91C2394.54 559.4 2391.54 575.936 2385.55 590.52C2379.56 604.842 2371.36 617.473 2360.94 628.41C2350.79 639.348 2338.94 648.592 2325.4 656.145C2311.85 663.697 2297.4 669.947 2282.04 674.895C2266.67 679.582 2250.79 682.967 2234.38 685.051C2218.23 687.134 2202.48 688.176 2187.11 688.176C2167.58 688.176 2148.31 686.874 2129.3 684.27C2110.29 681.405 2091.54 676.978 2073.05 670.988C2075.92 688.176 2080.47 704.582 2086.72 720.207C2092.97 735.572 2101.31 749.113 2111.72 760.832C2122.14 772.29 2134.9 781.405 2150.01 788.176C2165.37 794.947 2183.47 798.332 2204.3 798.332C2218.1 798.332 2231.26 796.249 2243.76 792.082C2256.26 787.915 2267.71 782.056 2278.13 774.504C2288.55 766.952 2297.66 757.967 2305.47 747.551C2313.55 737.134 2320.06 725.546 2325.01 712.785L2382.04 733.879C2373.44 754.452 2361.59 772.29 2346.49 787.395C2331.65 802.238 2314.72 814.608 2295.71 824.504C2276.96 834.139 2256.91 841.301 2235.55 845.988C2214.46 850.676 2193.49 853.02 2172.66 853.02C2138.29 853.02 2106.52 847.29 2077.35 835.832C2048.18 824.113 2023.05 807.837 2001.96 787.004C1980.86 766.171 1964.33 741.301 1952.35 712.395C1940.37 683.488 1934.38 651.848 1934.38 617.473C1934.38 583.098 1940.37 551.457 1952.35 522.551C1964.33 493.645 1980.86 468.775 2001.96 447.941C2023.05 427.108 2048.18 410.962 2077.35 399.504C2106.52 387.785 2138.29 381.926 2172.66 381.926C2189.33 381.926 2206.39 383.098 2223.83 385.441C2241.28 387.785 2258.21 391.561 2274.61 396.77C2291.02 401.717 2306.52 408.228 2321.1 416.301C2335.68 424.374 2348.31 434.4 2358.99 446.379C2369.93 458.098 2378.52 471.77 2384.77 487.395C2391.28 503.02 2394.54 520.858 2394.54 540.91ZM3175.01 580.754C3175.01 611.743 3171.36 644.035 3164.07 677.629C3156.78 711.223 3146.49 744.035 3133.21 776.066C3120.19 807.837 3104.43 837.915 3085.94 866.301C3067.45 894.686 3046.88 919.296 3024.22 940.129L2974.61 913.176C2982.17 899.634 2989.07 884.4 2995.32 867.473C3001.57 850.546 3007.3 832.707 3012.51 813.957C3017.71 795.207 3022.27 775.936 3026.18 756.145C3030.08 736.353 3033.34 716.691 3035.94 697.16C3038.81 677.368 3040.89 658.228 3042.19 639.738C3043.49 621.249 3044.15 603.931 3044.15 587.785C3044.15 578.671 3043.89 568.775 3043.36 558.098C3042.84 547.421 3041.67 536.743 3039.85 526.066C3038.29 515.389 3035.81 505.233 3032.43 495.598C3029.04 485.702 3024.35 476.978 3018.36 469.426C3012.64 461.613 3005.34 455.493 2996.49 451.066C2987.9 446.379 2977.48 444.035 2965.24 444.035C2953.26 444.035 2942.97 447.29 2934.38 453.801C2926.05 460.051 2918.89 468.254 2912.9 478.41C2906.91 488.566 2902.09 500.025 2898.44 512.785C2895.06 525.546 2892.45 538.436 2890.63 551.457C2888.81 564.217 2887.51 576.457 2886.72 588.176C2886.2 599.895 2885.94 609.79 2885.94 617.863V844.035H2754.3V633.879C2754.3 624.764 2754.43 613.827 2754.69 601.066C2754.95 588.046 2754.56 574.504 2753.52 560.441C2752.74 546.379 2751.05 532.447 2748.44 518.645C2746.1 504.582 2742.19 492.082 2736.72 481.145C2731.52 470.207 2724.35 461.353 2715.24 454.582C2706.13 447.551 2694.67 444.035 2680.86 444.035C2669.15 444.035 2659.25 447.29 2651.18 453.801C2643.36 460.311 2636.72 468.775 2631.26 479.191C2626.05 489.348 2621.88 500.936 2618.76 513.957C2615.89 526.717 2613.68 539.608 2612.11 552.629C2610.81 565.389 2610.03 577.629 2609.77 589.348C2609.51 600.806 2609.38 610.311 2609.38 617.863V844.035H2476.96V392.863H2527.74L2576.18 497.941C2587.11 461.483 2604.3 433.098 2627.74 412.785C2651.44 392.212 2682.82 381.926 2721.88 381.926C2757.04 381.926 2786.2 389.217 2809.38 403.801C2832.56 418.384 2850.79 442.082 2864.07 474.895C2871.62 460.572 2879.95 447.681 2889.07 436.223C2898.44 424.764 2908.73 414.999 2919.93 406.926C2931.39 398.853 2944.02 392.733 2957.82 388.566C2971.62 384.139 2986.85 381.926 3003.52 381.926C3034.25 381.926 3060.42 387.004 3082.04 397.16C3103.91 407.056 3121.75 420.858 3135.55 438.566C3149.35 456.275 3159.38 477.368 3165.63 501.848C3171.88 526.066 3175.01 552.368 3175.01 580.754ZM3724.22 585.441C3724.22 615.91 3720.45 647.681 3712.9 680.754C3705.6 713.827 3695.32 746.249 3682.04 778.02C3668.76 809.79 3652.87 839.608 3634.38 867.473C3615.89 895.598 3595.58 919.816 3573.44 940.129L3523.83 913.176C3530.86 900.155 3537.51 885.572 3543.76 869.426C3550.01 853.28 3555.6 836.223 3560.55 818.254C3565.76 800.025 3570.32 781.275 3574.22 762.004C3578.39 742.733 3581.78 723.723 3584.38 704.973C3587.24 685.962 3589.33 667.603 3590.63 649.895C3592.19 631.926 3592.97 615.259 3592.97 599.895C3592.97 589.738 3592.58 578.931 3591.8 567.473C3591.02 555.754 3589.33 544.165 3586.72 532.707C3584.38 520.988 3581.13 509.79 3576.96 499.113C3572.79 488.436 3567.19 479.061 3560.16 470.988C3553.39 462.915 3545.06 456.405 3535.16 451.457C3525.53 446.509 3514.07 444.035 3500.79 444.035C3487.77 444.035 3476.18 447.03 3466.02 453.02C3455.86 458.749 3446.88 466.431 3439.07 476.066C3431.26 485.441 3424.48 496.249 3418.76 508.488C3413.29 520.728 3408.73 533.358 3405.08 546.379C3401.7 559.139 3399.22 571.77 3397.66 584.27C3396.1 596.77 3395.32 607.967 3395.32 617.863V844.035H3262.9V392.863H3313.68L3374.22 497.941C3381.52 480.493 3390.63 464.608 3401.57 450.285C3412.51 435.962 3424.88 423.723 3438.68 413.566C3452.48 403.41 3467.71 395.598 3484.38 390.129C3501.31 384.66 3519.54 381.926 3539.07 381.926C3570.32 381.926 3597.53 387.004 3620.71 397.16C3643.89 407.316 3663.16 421.509 3678.52 439.738C3693.89 457.707 3705.34 479.191 3712.9 504.191C3720.45 528.931 3724.22 556.014 3724.22 585.441ZM3950.01 283.879C3950.01 293.775 3948.05 303.15 3944.15 312.004C3940.5 320.858 3935.42 328.54 3928.91 335.051C3922.4 341.561 3914.72 346.77 3905.86 350.676C3897.01 354.322 3887.64 356.145 3877.74 356.145C3867.84 356.145 3858.47 354.322 3849.61 350.676C3841.02 346.77 3833.47 341.561 3826.96 335.051C3820.45 328.54 3815.24 320.858 3811.33 312.004C3807.69 303.15 3805.86 293.775 3805.86 283.879C3805.86 273.983 3807.69 264.738 3811.33 256.145C3815.24 247.29 3820.45 239.608 3826.96 233.098C3833.47 226.587 3841.02 221.509 3849.61 217.863C3858.47 213.957 3867.84 212.004 3877.74 212.004C3887.64 212.004 3897.01 213.957 3905.86 217.863C3914.72 221.509 3922.4 226.587 3928.91 233.098C3935.42 239.608 3940.5 247.29 3944.15 256.145C3948.05 264.738 3950.01 273.983 3950.01 283.879ZM3944.15 844.035H3811.72V393.254H3944.15V844.035Z" fill="#380069"/>
</svg>
